<?xml version="1.0" encoding="UTF-8" standalone="no"?>
<!DOCTYPE svg PUBLIC "-//W3C//DTD SVG 1.1//EN"
 "http://www.w3.org/Graphics/SVG/1.1/DTD/svg11.dtd">
<!-- Generated by graphviz version 2.26.3 (20100126.1600)
 -->
<!-- Title: controllers_diagram Pages: 1 -->
<svg width="665pt" height="738pt"
 viewBox="0.00 0.00 665.00 738.29" xmlns="http://www.w3.org/2000/svg" xmlns:xlink="http://www.w3.org/1999/xlink">
<g id="graph1" class="graph" transform="scale(1 1) rotate(0) translate(4 734.289)">
<title>controllers_diagram</title>
<polygon fill="white" stroke="white" points="-4,5 -4,-734.289 662,-734.289 662,5 -4,5"/>
<!-- _diagram_info -->
<g id="node1" class="node"><title>_diagram_info</title>
<text text-anchor="start" x="414" y="-528.3" font-family="Times Roman,serif" font-size="13.00">Controllers diagram</text>
<text text-anchor="start" x="414" y="-511.3" font-family="Times Roman,serif" font-size="13.00">Date: Feb 25 2014 &#45; 10:49</text>
<text text-anchor="start" x="414" y="-494.3" font-family="Times Roman,serif" font-size="13.00">Migration version: 20140204113749</text>
<text text-anchor="start" x="414" y="-477.3" font-family="Times Roman,serif" font-size="13.00">Generated by RailRoady 1.1.1</text>
<text text-anchor="start" x="414" y="-460.3" font-family="Times Roman,serif" font-size="13.00">http://railroady.prestonlee.com</text>
</g>
<!-- UsersController -->
<g id="node2" class="node"><title>UsersController</title>
<polyline fill="none" stroke="black" points="52.3455,-1.5 152.346,-1.5 "/>
<path fill="none" stroke="black" d="M152.346,-1.5C158.346,-1.5 164.346,-7.5 164.346,-13.5"/>
<polyline fill="none" stroke="black" points="164.346,-13.5 164.346,-253.5 "/>
<path fill="none" stroke="black" d="M164.346,-253.5C164.346,-259.5 158.346,-265.5 152.346,-265.5"/>
<polyline fill="none" stroke="black" points="152.346,-265.5 52.3455,-265.5 "/>
<path fill="none" stroke="black" d="M52.3455,-265.5C46.3455,-265.5 40.3455,-259.5 40.3455,-253.5"/>
<polyline fill="none" stroke="black" points="40.3455,-253.5 40.3455,-13.5 "/>
<path fill="none" stroke="black" d="M40.3455,-13.5C40.3455,-7.5 46.3455,-1.5 52.3455,-1.5"/>
<text text-anchor="middle" x="102.346" y="-248.9" font-family="Times Roman,serif" font-size="14.00">UsersController</text>
<polyline fill="none" stroke="black" points="40.3455,-239.5 164.346,-239.5 "/>
<text text-anchor="start" x="48.3455" y="-222.9" font-family="Times Roman,serif" font-size="14.00">create</text>
<text text-anchor="start" x="48.3455" y="-204.9" font-family="Times Roman,serif" font-size="14.00">destroy</text>
<text text-anchor="start" x="48.3455" y="-186.9" font-family="Times Roman,serif" font-size="14.00">edit</text>
<text text-anchor="start" x="48.3455" y="-168.9" font-family="Times Roman,serif" font-size="14.00">index</text>
<text text-anchor="start" x="48.3455" y="-150.9" font-family="Times Roman,serif" font-size="14.00">new</text>
<text text-anchor="start" x="48.3455" y="-132.9" font-family="Times Roman,serif" font-size="14.00">show</text>
<text text-anchor="start" x="48.3455" y="-114.9" font-family="Times Roman,serif" font-size="14.00">update</text>
<polyline fill="none" stroke="black" points="40.3455,-105.5 164.346,-105.5 "/>
<polyline fill="none" stroke="black" points="40.3455,-81.5 164.346,-81.5 "/>
<text text-anchor="start" x="48.3455" y="-64.9" font-family="Times Roman,serif" font-size="14.00">_layout</text>
<text text-anchor="start" x="48.3455" y="-46.9" font-family="Times Roman,serif" font-size="14.00">set_keywords</text>
<text text-anchor="start" x="48.3455" y="-28.9" font-family="Times Roman,serif" font-size="14.00">set_user</text>
<text text-anchor="start" x="48.3455" y="-10.9" font-family="Times Roman,serif" font-size="14.00">user_params</text>
</g>
<!-- IdeasController -->
<g id="node3" class="node"><title>IdeasController</title>
<polyline fill="none" stroke="black" points="282.874,-46.3274 380.874,-46.3274 "/>
<path fill="none" stroke="black" d="M380.874,-46.3274C386.874,-46.3274 392.874,-52.3274 392.874,-58.3274"/>
<polyline fill="none" stroke="black" points="392.874,-58.3274 392.874,-370.327 "/>
<path fill="none" stroke="black" d="M392.874,-370.327C392.874,-376.327 386.874,-382.327 380.874,-382.327"/>
<polyline fill="none" stroke="black" points="380.874,-382.327 282.874,-382.327 "/>
<path fill="none" stroke="black" d="M282.874,-382.327C276.874,-382.327 270.874,-376.327 270.874,-370.327"/>
<polyline fill="none" stroke="black" points="270.874,-370.327 270.874,-58.3274 "/>
<path fill="none" stroke="black" d="M270.874,-58.3274C270.874,-52.3274 276.874,-46.3274 282.874,-46.3274"/>
<text text-anchor="middle" x="331.874" y="-365.727" font-family="Times Roman,serif" font-size="14.00">IdeasController</text>
<polyline fill="none" stroke="black" points="270.874,-356.327 392.874,-356.327 "/>
<text text-anchor="start" x="278.874" y="-339.727" font-family="Times Roman,serif" font-size="14.00">admin</text>
<text text-anchor="start" x="278.874" y="-321.727" font-family="Times Roman,serif" font-size="14.00">create</text>
<text text-anchor="start" x="278.874" y="-303.727" font-family="Times Roman,serif" font-size="14.00">destroy</text>
<text text-anchor="start" x="278.874" y="-285.727" font-family="Times Roman,serif" font-size="14.00">downvote</text>
<text text-anchor="start" x="278.874" y="-267.727" font-family="Times Roman,serif" font-size="14.00">edit</text>
<text text-anchor="start" x="278.874" y="-249.727" font-family="Times Roman,serif" font-size="14.00">index</text>
<text text-anchor="start" x="278.874" y="-231.727" font-family="Times Roman,serif" font-size="14.00">new</text>
<text text-anchor="start" x="278.874" y="-213.727" font-family="Times Roman,serif" font-size="14.00">show</text>
<text text-anchor="start" x="278.874" y="-195.727" font-family="Times Roman,serif" font-size="14.00">update</text>
<text text-anchor="start" x="278.874" y="-177.727" font-family="Times Roman,serif" font-size="14.00">upvote</text>
<polyline fill="none" stroke="black" points="270.874,-168.327 392.874,-168.327 "/>
<polyline fill="none" stroke="black" points="270.874,-144.327 392.874,-144.327 "/>
<text text-anchor="start" x="278.874" y="-127.727" font-family="Times Roman,serif" font-size="14.00">_layout</text>
<text text-anchor="start" x="278.874" y="-109.727" font-family="Times Roman,serif" font-size="14.00">idea_params</text>
<text text-anchor="start" x="278.874" y="-91.7274" font-family="Times Roman,serif" font-size="14.00">set_comments</text>
<text text-anchor="start" x="278.874" y="-73.7274" font-family="Times Roman,serif" font-size="14.00">set_idea</text>
<text text-anchor="start" x="278.874" y="-55.7274" font-family="Times Roman,serif" font-size="14.00">set_keywords</text>
</g>
<!-- ApplicationController -->
<g id="node4" class="node"><title>ApplicationController</title>
<polyline fill="none" stroke="black" points="13,-388.307 150,-388.307 "/>
<path fill="none" stroke="black" d="M150,-388.307C156,-388.307 162,-394.307 162,-400.307"/>
<polyline fill="none" stroke="black" points="162,-400.307 162,-476.307 "/>
<path fill="none" stroke="black" d="M162,-476.307C162,-482.307 156,-488.307 150,-488.307"/>
<polyline fill="none" stroke="black" points="150,-488.307 13,-488.307 "/>
<path fill="none" stroke="black" d="M13,-488.307C7,-488.307 1,-482.307 1,-476.307"/>
<polyline fill="none" stroke="black" points="1,-476.307 1,-400.307 "/>
<path fill="none" stroke="black" d="M1,-400.307C1,-394.307 7,-388.307 13,-388.307"/>
<text text-anchor="middle" x="81.5" y="-471.707" font-family="Times Roman,serif" font-size="14.00">ApplicationController</text>
<polyline fill="none" stroke="black" points="1,-462.307 162,-462.307 "/>
<polyline fill="none" stroke="black" points="1,-438.307 162,-438.307 "/>
<polyline fill="none" stroke="black" points="1,-414.307 162,-414.307 "/>
<text text-anchor="start" x="9" y="-397.707" font-family="Times Roman,serif" font-size="14.00">_layout</text>
</g>
<!-- ApplicationController&#45;&gt;UsersController -->
<g id="edge2" class="edge"><title>ApplicationController&#45;&gt;UsersController</title>
<path fill="none" stroke="black" d="M84.9422,-387.974C87.2261,-354.579 90.3375,-309.083 93.2983,-265.79"/>
</g>
<!-- ApplicationController&#45;&gt;IdeasController -->
<g id="edge4" class="edge"><title>ApplicationController&#45;&gt;IdeasController</title>
<path fill="none" stroke="black" d="M137.689,-388.041C177.193,-352.701 230.029,-305.436 270.613,-269.13"/>
</g>
<!-- KeywordsController -->
<g id="node5" class="node"><title>KeywordsController</title>
<polyline fill="none" stroke="black" points="188.595,-464.789 316.595,-464.789 "/>
<path fill="none" stroke="black" d="M316.595,-464.789C322.595,-464.789 328.595,-470.789 328.595,-476.789"/>
<polyline fill="none" stroke="black" points="328.595,-476.789 328.595,-716.789 "/>
<path fill="none" stroke="black" d="M328.595,-716.789C328.595,-722.789 322.595,-728.789 316.595,-728.789"/>
<polyline fill="none" stroke="black" points="316.595,-728.789 188.595,-728.789 "/>
<path fill="none" stroke="black" d="M188.595,-728.789C182.595,-728.789 176.595,-722.789 176.595,-716.789"/>
<polyline fill="none" stroke="black" points="176.595,-716.789 176.595,-476.789 "/>
<path fill="none" stroke="black" d="M176.595,-476.789C176.595,-470.789 182.595,-464.789 188.595,-464.789"/>
<text text-anchor="middle" x="252.595" y="-712.189" font-family="Times Roman,serif" font-size="14.00">KeywordsController</text>
<polyline fill="none" stroke="black" points="176.595,-702.789 328.595,-702.789 "/>
<text text-anchor="start" x="184.595" y="-686.189" font-family="Times Roman,serif" font-size="14.00">create</text>
<text text-anchor="start" x="184.595" y="-668.189" font-family="Times Roman,serif" font-size="14.00">destroy</text>
<text text-anchor="start" x="184.595" y="-650.189" font-family="Times Roman,serif" font-size="14.00">edit</text>
<text text-anchor="start" x="184.595" y="-632.189" font-family="Times Roman,serif" font-size="14.00">index</text>
<text text-anchor="start" x="184.595" y="-614.189" font-family="Times Roman,serif" font-size="14.00">new</text>
<text text-anchor="start" x="184.595" y="-596.189" font-family="Times Roman,serif" font-size="14.00">show</text>
<text text-anchor="start" x="184.595" y="-578.189" font-family="Times Roman,serif" font-size="14.00">update</text>
<polyline fill="none" stroke="black" points="176.595,-568.789 328.595,-568.789 "/>
<polyline fill="none" stroke="black" points="176.595,-544.789 328.595,-544.789 "/>
<text text-anchor="start" x="184.595" y="-528.189" font-family="Times Roman,serif" font-size="14.00">_layout</text>
<text text-anchor="start" x="184.595" y="-510.189" font-family="Times Roman,serif" font-size="14.00">keyword_params</text>
<text text-anchor="start" x="184.595" y="-492.189" font-family="Times Roman,serif" font-size="14.00">set_keyword</text>
<text text-anchor="start" x="184.595" y="-474.189" font-family="Times Roman,serif" font-size="14.00">set_keywords</text>
</g>
<!-- ApplicationController&#45;&gt;KeywordsController -->
<g id="edge6" class="edge"><title>ApplicationController&#45;&gt;KeywordsController</title>
<path fill="none" stroke="black" d="M135.635,-488.451C148.558,-500.422 162.592,-513.421 176.304,-526.122"/>
</g>
</g>
</svg>
