<?xml version="1.0" encoding="UTF-8" standalone="no"?>
<!DOCTYPE svg PUBLIC "-//W3C//DTD SVG 1.1//EN"
 "http://www.w3.org/Graphics/SVG/1.1/DTD/svg11.dtd">
<!-- Generated by graphviz version 2.26.3 (20100126.1600)
 -->
<!-- Title: Appideas Pages: 1 -->
<svg width="750pt" height="353pt"
 viewBox="0.00 0.00 749.60 352.60" xmlns="http://www.w3.org/2000/svg" xmlns:xlink="http://www.w3.org/1999/xlink">
<g id="graph1" class="graph" transform="scale(1 1) rotate(0) translate(28.8 323.8)">
<title>Appideas</title>
<polygon fill="white" stroke="white" points="-28.8,29.8 -28.8,-323.8 721.8,-323.8 721.8,29.8 -28.8,29.8"/>
<text text-anchor="middle" x="346" y="-279.3" font-family="Arial Bold" font-size="13.00">Appideas domain model</text>
<!-- m_ActsAsVotable::Vote -->
<g id="node1" class="node"><title>m_ActsAsVotable::Vote</title>
<polyline fill="none" stroke="black" points="558.5,-57.5 679.5,-57.5 "/>
<path fill="none" stroke="black" d="M679.5,-57.5C685.5,-57.5 691.5,-63.5 691.5,-69.5"/>
<polyline fill="none" stroke="black" points="691.5,-69.5 691.5,-148.5 "/>
<path fill="none" stroke="black" d="M691.5,-148.5C691.5,-154.5 685.5,-160.5 679.5,-160.5"/>
<polyline fill="none" stroke="black" points="679.5,-160.5 558.5,-160.5 "/>
<path fill="none" stroke="black" d="M558.5,-160.5C552.5,-160.5 546.5,-154.5 546.5,-148.5"/>
<polyline fill="none" stroke="black" points="546.5,-148.5 546.5,-69.5 "/>
<path fill="none" stroke="black" d="M546.5,-69.5C546.5,-63.5 552.5,-57.5 558.5,-57.5"/>
<text text-anchor="start" x="565.5" y="-147.433" font-family="Arial Bold" font-size="11.00">ActsAsVotable::Vote</text>
<polyline fill="none" stroke="black" points="546.5,-140.5 691.5,-140.5 "/>
<text text-anchor="start" x="554" y="-126.167" font-family="Arial" font-size="10.00">votable_type </text>
<text text-anchor="start" x="612" y="-126.167" font-family="Arial Italic" font-size="10.00" fill="#999999">string</text>
<text text-anchor="start" x="554" y="-113.667" font-family="Arial" font-size="10.00">vote_flag </text>
<text text-anchor="start" x="595" y="-113.667" font-family="Arial Italic" font-size="10.00" fill="#999999">boolean</text>
<text text-anchor="start" x="554" y="-101.667" font-family="Arial" font-size="10.00">vote_scope </text>
<text text-anchor="start" x="606" y="-101.667" font-family="Arial Italic" font-size="10.00" fill="#999999">string</text>
<text text-anchor="start" x="554" y="-89.6667" font-family="Arial" font-size="10.00">vote_weight </text>
<text text-anchor="start" x="608" y="-89.6667" font-family="Arial Italic" font-size="10.00" fill="#999999">integer</text>
<text text-anchor="start" x="554" y="-77.6667" font-family="Arial" font-size="10.00">voter_id </text>
<text text-anchor="start" x="591" y="-77.6667" font-family="Arial Italic" font-size="10.00" fill="#999999">integer ∗</text>
<text text-anchor="start" x="554" y="-65.6667" font-family="Arial" font-size="10.00">voter_type </text>
<text text-anchor="start" x="602" y="-65.6667" font-family="Arial Italic" font-size="10.00" fill="#999999">string</text>
</g>
<!-- m_Comment -->
<g id="node2" class="node"><title>m_Comment</title>
<polyline fill="none" stroke="black" points="376.5,-0.5 497.5,-0.5 "/>
<path fill="none" stroke="black" d="M497.5,-0.5C503.5,-0.5 509.5,-6.5 509.5,-12.5"/>
<polyline fill="none" stroke="black" points="509.5,-12.5 509.5,-91.5 "/>
<path fill="none" stroke="black" d="M509.5,-91.5C509.5,-97.5 503.5,-103.5 497.5,-103.5"/>
<polyline fill="none" stroke="black" points="497.5,-103.5 376.5,-103.5 "/>
<path fill="none" stroke="black" d="M376.5,-103.5C370.5,-103.5 364.5,-97.5 364.5,-91.5"/>
<polyline fill="none" stroke="black" points="364.5,-91.5 364.5,-12.5 "/>
<path fill="none" stroke="black" d="M364.5,-12.5C364.5,-6.5 370.5,-0.5 376.5,-0.5"/>
<text text-anchor="start" x="410" y="-90.4333" font-family="Arial Bold" font-size="11.00">Comment</text>
<polyline fill="none" stroke="black" points="364.5,-83.5 509.5,-83.5 "/>
<text text-anchor="start" x="372" y="-69.1667" font-family="Arial" font-size="10.00">body </text>
<text text-anchor="start" x="397" y="-69.1667" font-family="Arial Italic" font-size="10.00" fill="#999999">text ∗</text>
<text text-anchor="start" x="372" y="-56.6667" font-family="Arial" font-size="10.00">commentable_type </text>
<text text-anchor="start" x="458" y="-56.6667" font-family="Arial Italic" font-size="10.00" fill="#999999">string</text>
<text text-anchor="start" x="372" y="-44.6667" font-family="Arial" font-size="10.00">lft </text>
<text text-anchor="start" x="383" y="-44.6667" font-family="Arial Italic" font-size="10.00" fill="#999999">integer</text>
<text text-anchor="start" x="372" y="-32.6667" font-family="Arial" font-size="10.00">rgt </text>
<text text-anchor="start" x="387" y="-32.6667" font-family="Arial Italic" font-size="10.00" fill="#999999">integer</text>
<text text-anchor="start" x="372" y="-20.6667" font-family="Arial" font-size="10.00">subject </text>
<text text-anchor="start" x="407" y="-20.6667" font-family="Arial Italic" font-size="10.00" fill="#999999">string</text>
<text text-anchor="start" x="372" y="-8.66667" font-family="Arial" font-size="10.00">title </text>
<text text-anchor="start" x="391" y="-8.66667" font-family="Arial Italic" font-size="10.00" fill="#999999">string</text>
</g>
<!-- m_Comment&#45;&gt;m_ActsAsVotable::Vote -->
<g id="edge2" class="edge"><title>m_Comment&#45;&gt;m_ActsAsVotable::Vote</title>
<path fill="none" stroke="black" d="M509.716,-74.7736C518.87,-77.6405 528.281,-80.5881 537.559,-83.4936"/>
<polygon fill="black" stroke="black" points="536.87,-86.5786 546.4,-86.2625 538.752,-80.5666 536.87,-86.5786"/>
</g>
<!-- m_Comment&#45;&gt;m_Comment -->
<g id="edge10" class="edge"><title>m_Comment&#45;&gt;m_Comment</title>
<path fill="none" stroke="black" d="M402.894,-103.806C403.414,-120.125 414.783,-133 437,-133 454.878,-133 465.731,-124.663 469.56,-112.904"/>
<polygon fill="black" stroke="black" points="472.703,-113.206 471.106,-103.806 466.492,-112.151 472.703,-113.206"/>
</g>
<!-- m_Idea -->
<g id="node3" class="node"><title>m_Idea</title>
<polyline fill="none" stroke="black" points="194.5,-115.5 315.5,-115.5 "/>
<path fill="none" stroke="black" d="M315.5,-115.5C321.5,-115.5 327.5,-121.5 327.5,-127.5"/>
<polyline fill="none" stroke="black" points="327.5,-127.5 327.5,-158.5 "/>
<path fill="none" stroke="black" d="M327.5,-158.5C327.5,-164.5 321.5,-170.5 315.5,-170.5"/>
<polyline fill="none" stroke="black" points="315.5,-170.5 194.5,-170.5 "/>
<path fill="none" stroke="black" d="M194.5,-170.5C188.5,-170.5 182.5,-164.5 182.5,-158.5"/>
<polyline fill="none" stroke="black" points="182.5,-158.5 182.5,-127.5 "/>
<path fill="none" stroke="black" d="M182.5,-127.5C182.5,-121.5 188.5,-115.5 194.5,-115.5"/>
<text text-anchor="start" x="242" y="-157.433" font-family="Arial Bold" font-size="11.00">Idea</text>
<polyline fill="none" stroke="black" points="182.5,-150.5 327.5,-150.5 "/>
<text text-anchor="start" x="190" y="-136.167" font-family="Arial" font-size="10.00">desc </text>
<text text-anchor="start" x="215" y="-136.167" font-family="Arial Italic" font-size="10.00" fill="#999999">text ∗</text>
<text text-anchor="start" x="190" y="-123.667" font-family="Arial" font-size="10.00">name </text>
<text text-anchor="start" x="218" y="-123.667" font-family="Arial Italic" font-size="10.00" fill="#999999">string ∗</text>
</g>
<!-- m_Idea&#45;&gt;m_ActsAsVotable::Vote -->
<g id="edge4" class="edge"><title>m_Idea&#45;&gt;m_ActsAsVotable::Vote</title>
<path fill="none" stroke="black" d="M327.621,-145.668C378.838,-146.484 448.918,-145.451 510,-137 519.02,-135.752 528.368,-134.03 537.626,-132.049"/>
<polygon fill="black" stroke="black" points="538.364,-135.112 546.461,-130.077 536.991,-128.963 538.364,-135.112"/>
</g>
<!-- m_Idea&#45;&gt;m_Comment -->
<g id="edge12" class="edge"><title>m_Idea&#45;&gt;m_Comment</title>
<path fill="none" stroke="black" d="M310.1,-115.45C324.622,-108.189 340.597,-100.201 356.17,-92.4151"/>
<polygon fill="black" stroke="black" points="357.626,-95.209 364.267,-88.3666 354.808,-89.5741 357.626,-95.209"/>
</g>
<!-- m_IdeaKeyword -->
<g id="node4" class="node"><title>m_IdeaKeyword</title>
<polyline fill="none" stroke="black" points="376.5,-210 497.5,-210 "/>
<path fill="none" stroke="black" d="M497.5,-210C503.5,-210 509.5,-216 509.5,-222"/>
<polyline fill="none" stroke="black" points="509.5,-222 509.5,-234 "/>
<path fill="none" stroke="black" d="M509.5,-234C509.5,-240 503.5,-246 497.5,-246"/>
<polyline fill="none" stroke="black" points="497.5,-246 376.5,-246 "/>
<path fill="none" stroke="black" d="M376.5,-246C370.5,-246 364.5,-240 364.5,-234"/>
<polyline fill="none" stroke="black" points="364.5,-234 364.5,-222 "/>
<path fill="none" stroke="black" d="M364.5,-222C364.5,-216 370.5,-210 376.5,-210"/>
<text text-anchor="start" x="400.5" y="-224.933" font-family="Arial Bold" font-size="11.00">IdeaKeyword</text>
</g>
<!-- m_Idea&#45;&gt;m_IdeaKeyword -->
<g id="edge16" class="edge"><title>m_Idea&#45;&gt;m_IdeaKeyword</title>
<path fill="none" stroke="black" d="M314.09,-170.597C338.68,-182.081 366.829,-195.228 389.978,-206.039"/>
<polygon fill="black" stroke="black" points="388.778,-208.955 398.265,-209.909 391.443,-203.247 388.778,-208.955"/>
</g>
<!-- m_Keyword -->
<g id="node5" class="node"><title>m_Keyword</title>
<polyline fill="none" stroke="black" points="194.5,-200.5 315.5,-200.5 "/>
<path fill="none" stroke="black" d="M315.5,-200.5C321.5,-200.5 327.5,-206.5 327.5,-212.5"/>
<polyline fill="none" stroke="black" points="327.5,-212.5 327.5,-243.5 "/>
<path fill="none" stroke="black" d="M327.5,-243.5C327.5,-249.5 321.5,-255.5 315.5,-255.5"/>
<polyline fill="none" stroke="black" points="315.5,-255.5 194.5,-255.5 "/>
<path fill="none" stroke="black" d="M194.5,-255.5C188.5,-255.5 182.5,-249.5 182.5,-243.5"/>
<polyline fill="none" stroke="black" points="182.5,-243.5 182.5,-212.5 "/>
<path fill="none" stroke="black" d="M182.5,-212.5C182.5,-206.5 188.5,-200.5 194.5,-200.5"/>
<text text-anchor="start" x="230" y="-242.433" font-family="Arial Bold" font-size="11.00">Keyword</text>
<polyline fill="none" stroke="black" points="182.5,-235.5 327.5,-235.5 "/>
<text text-anchor="start" x="190" y="-221.167" font-family="Arial" font-size="10.00">concrete </text>
<text text-anchor="start" x="231" y="-221.167" font-family="Arial Italic" font-size="10.00" fill="#999999">boolean</text>
<text text-anchor="start" x="190" y="-208.667" font-family="Arial" font-size="10.00">name </text>
<text text-anchor="start" x="218" y="-208.667" font-family="Arial Italic" font-size="10.00" fill="#999999">string ∗</text>
</g>
<!-- m_Keyword&#45;&gt;m_Idea -->
<g id="edge8" class="edge"><title>m_Keyword&#45;&gt;m_Idea</title>
<path fill="none" stroke="black" stroke-dasharray="1,5" d="M255,-200.177C255,-193.389 255,-186.602 255,-179.814"/>
<polygon fill="black" stroke="black" points="258.15,-179.559 255,-170.559 251.85,-179.559 258.15,-179.559"/>
</g>
<!-- m_Keyword&#45;&gt;m_IdeaKeyword -->
<g id="edge6" class="edge"><title>m_Keyword&#45;&gt;m_IdeaKeyword</title>
<path fill="none" stroke="black" d="M327.716,-228C336.775,-228 346.087,-228 355.272,-228"/>
<polygon fill="black" stroke="black" points="355.4,-231.15 364.4,-228 355.4,-224.85 355.4,-231.15"/>
</g>
<!-- m_User -->
<g id="node6" class="node"><title>m_User</title>
<polyline fill="none" stroke="black" points="12.5,-74.5 133.5,-74.5 "/>
<path fill="none" stroke="black" d="M133.5,-74.5C139.5,-74.5 145.5,-80.5 145.5,-86.5"/>
<polyline fill="none" stroke="black" points="145.5,-86.5 145.5,-117.5 "/>
<path fill="none" stroke="black" d="M145.5,-117.5C145.5,-123.5 139.5,-129.5 133.5,-129.5"/>
<polyline fill="none" stroke="black" points="133.5,-129.5 12.5,-129.5 "/>
<path fill="none" stroke="black" d="M12.5,-129.5C6.5,-129.5 0.5,-123.5 0.5,-117.5"/>
<polyline fill="none" stroke="black" points="0.5,-117.5 0.5,-86.5 "/>
<path fill="none" stroke="black" d="M0.5,-86.5C0.5,-80.5 6.5,-74.5 12.5,-74.5"/>
<text text-anchor="start" x="58.5" y="-116.433" font-family="Arial Bold" font-size="11.00">User</text>
<polyline fill="none" stroke="black" points="0.5,-109.5 145.5,-109.5 "/>
<text text-anchor="start" x="8" y="-95.1667" font-family="Arial" font-size="10.00">password </text>
<text text-anchor="start" x="53" y="-95.1667" font-family="Arial Italic" font-size="10.00" fill="#999999">string ∗</text>
<text text-anchor="start" x="8" y="-82.6667" font-family="Arial" font-size="10.00">username </text>
<text text-anchor="start" x="54" y="-82.6667" font-family="Arial Italic" font-size="10.00" fill="#999999">string ∗</text>
</g>
<!-- m_User&#45;&gt;m_Comment -->
<g id="edge14" class="edge"><title>m_User&#45;&gt;m_Comment</title>
<path fill="none" stroke="black" d="M145.786,-92.0019C206.296,-83.6901 292.364,-71.8676 355.238,-63.2311"/>
<polygon fill="black" stroke="black" points="355.853,-66.3263 364.34,-61.9807 354.995,-60.0849 355.853,-66.3263"/>
</g>
<!-- m_User&#45;&gt;m_Idea -->
<g id="edge18" class="edge"><title>m_User&#45;&gt;m_Idea</title>
<path fill="none" stroke="black" d="M145.716,-118.381C154.87,-120.443 164.281,-122.563 173.559,-124.653"/>
<polygon fill="black" stroke="black" points="172.927,-127.74 182.4,-126.645 174.312,-121.594 172.927,-127.74"/>
</g>
</g>
</svg>
