<?xml version="1.0" encoding="UTF-8" standalone="no"?>
<!DOCTYPE svg PUBLIC "-//W3C//DTD SVG 1.1//EN"
 "http://www.w3.org/Graphics/SVG/1.1/DTD/svg11.dtd">
<!-- Generated by graphviz version 2.26.3 (20100126.1600)
 -->
<!-- Title: models_diagram Pages: 1 -->
<svg width="572pt" height="438pt"
 viewBox="0.00 0.00 572.00 438.00" xmlns="http://www.w3.org/2000/svg" xmlns:xlink="http://www.w3.org/1999/xlink">
<g id="graph1" class="graph" transform="scale(1 1) rotate(0) translate(4 434)">
<title>models_diagram</title>
<polygon fill="white" stroke="white" points="-4,5 -4,-434 569,-434 569,5 -4,5"/>
<!-- _diagram_info -->
<g id="node1" class="node"><title>_diagram_info</title>
<text text-anchor="start" x="8" y="-413.8" font-family="Times Roman,serif" font-size="13.00">Models diagram</text>
<text text-anchor="start" x="8" y="-396.8" font-family="Times Roman,serif" font-size="13.00">Date: Feb 25 2014 &#45; 10:49</text>
<text text-anchor="start" x="8" y="-379.8" font-family="Times Roman,serif" font-size="13.00">Migration version: 20140204113749</text>
<text text-anchor="start" x="8" y="-362.8" font-family="Times Roman,serif" font-size="13.00">Generated by RailRoady 1.1.1</text>
<text text-anchor="start" x="8" y="-345.8" font-family="Times Roman,serif" font-size="13.00">http://railroady.prestonlee.com</text>
</g>
<!-- Keyword -->
<g id="node2" class="node"><title>Keyword</title>
<ellipse fill="none" stroke="black" cx="266" cy="-279" rx="53.9477" ry="18.3848"/>
<text text-anchor="middle" x="266" y="-275.4" font-family="Times Roman,serif" font-size="14.00">Keyword</text>
</g>
<!-- IdeaKeyword -->
<g id="node3" class="node"><title>IdeaKeyword</title>
<ellipse fill="none" stroke="black" cx="208" cy="-111" rx="74.9533" ry="18.3848"/>
<text text-anchor="middle" x="208" y="-107.4" font-family="Times Roman,serif" font-size="14.00">IdeaKeyword</text>
</g>
<!-- Keyword&#45;&gt;IdeaKeyword -->
<g id="edge2" class="edge"><title>Keyword&#45;&gt;IdeaKeyword</title>
<path fill="none" stroke="#1237b3" d="M256.899,-252.637C246.217,-221.696 228.578,-170.606 217.66,-138.982"/>
<ellipse fill="none" stroke="#1237b3" cx="258.266" cy="-256.598" rx="4.00001" ry="4.00001"/>
<polygon fill="#1237b3" stroke="#1237b3" points="217.632,-138.901 218.623,-127.98 216.001,-134.174 214.369,-129.448 214.369,-129.448 214.369,-129.448 216.001,-134.174 210.115,-130.917 217.632,-138.901 217.632,-138.901"/>
</g>
<!-- Idea -->
<g id="node6" class="node"><title>Idea</title>
<ellipse fill="none" stroke="black" cx="336" cy="-203" rx="32.0265" ry="18.3848"/>
<text text-anchor="middle" x="336" y="-199.4" font-family="Times Roman,serif" font-size="14.00">Idea</text>
</g>
<!-- Keyword&#45;&gt;Idea -->
<g id="edge4" class="edge"><title>Keyword&#45;&gt;Idea</title>
<path fill="none" stroke="#1cdf8c" d="M289.437,-253.554C297.334,-244.981 306.115,-235.446 313.905,-226.989"/>
<polygon fill="#1cdf8c" stroke="#1cdf8c" points="289.364,-253.634 279.279,-257.94 285.976,-257.311 282.589,-260.989 282.589,-260.989 282.589,-260.989 285.976,-257.311 285.899,-264.038 289.364,-253.634 289.364,-253.634"/>
<polygon fill="#1cdf8c" stroke="#1cdf8c" points="313.951,-226.939 324.036,-222.632 317.339,-223.261 320.726,-219.583 320.726,-219.583 320.726,-219.583 317.339,-223.261 317.416,-216.534 313.951,-226.939 313.951,-226.939"/>
</g>
<!-- User -->
<g id="node4" class="node"><title>User</title>
<ellipse fill="none" stroke="black" cx="372" cy="-279" rx="33.9411" ry="18.3848"/>
<text text-anchor="middle" x="372" y="-275.4" font-family="Times Roman,serif" font-size="14.00">User</text>
</g>
<!-- User&#45;&gt;Idea -->
<g id="edge10" class="edge"><title>User&#45;&gt;Idea</title>
<path fill="none" stroke="#19435a" d="M359.927,-253.513C356.362,-245.985 352.446,-237.72 348.834,-230.094"/>
<ellipse fill="none" stroke="#19435a" cx="361.756" cy="-257.374" rx="4.00002" ry="4.00002"/>
<polygon fill="#19435a" stroke="#19435a" points="348.751,-229.919 348.537,-218.955 346.611,-225.4 344.47,-220.882 344.47,-220.882 344.47,-220.882 346.611,-225.4 340.403,-222.808 348.751,-229.919 348.751,-229.919"/>
</g>
<!-- Comment -->
<g id="node5" class="node"><title>Comment</title>
<ellipse fill="none" stroke="black" cx="433" cy="-111" rx="58.1882" ry="18.3848"/>
<text text-anchor="middle" x="433" y="-107.4" font-family="Times Roman,serif" font-size="14.00">Comment</text>
</g>
<!-- Comment&#45;&gt;Comment -->
<g id="edge14" class="edge"><title>Comment&#45;&gt;Comment</title>
<path fill="none" stroke="#d2f278" d="M492.51,-118.989C502.28,-117.851 509,-115.188 509,-111 509,-107.099 503.17,-104.522 494.477,-103.267"/>
<ellipse fill="none" stroke="#d2f278" cx="488.496" cy="-119.276" rx="4" ry="4"/>
<polygon fill="#d2f278" stroke="#d2f278" points="494.472,-103.267 484.878,-97.9541 489.489,-102.853 484.506,-102.439 484.506,-102.439 484.506,-102.439 489.489,-102.853 484.133,-106.923 494.472,-103.267 494.472,-103.267"/>
<text text-anchor="middle" x="536.5" y="-107.4" font-family="Times Roman,serif" font-size="14.00">children</text>
</g>
<!-- ActsAsVotable::Vote -->
<g id="node16" class="node"><title>ActsAsVotable::Vote</title>
<ellipse fill="none" stroke="black" cx="355" cy="-19" rx="109.101" ry="18.3848"/>
<text text-anchor="middle" x="355" y="-15.4" font-family="Times Roman,serif" font-size="14.00">ActsAsVotable::Vote</text>
</g>
<!-- Comment&#45;&gt;ActsAsVotable::Vote -->
<g id="edge16" class="edge"><title>Comment&#45;&gt;ActsAsVotable::Vote</title>
<path fill="none" stroke="#4d4fc2" d="M412.232,-86.5045C401.417,-73.7486 388.189,-58.1459 377.175,-45.1554"/>
<ellipse fill="none" stroke="#4d4fc2" cx="415.003" cy="-89.7727" rx="4.00002" ry="4.00002"/>
<polygon fill="#4d4fc2" stroke="#4d4fc2" points="377.112,-45.081 374.078,-34.5433 373.879,-41.2672 370.645,-37.4534 370.645,-37.4534 370.645,-37.4534 373.879,-41.2672 367.213,-40.3635 377.112,-45.081 377.112,-45.081"/>
<text text-anchor="middle" x="419" y="-61.4" font-family="Times Roman,serif" font-size="14.00">votes</text>
</g>
<!-- Idea&#45;&gt;IdeaKeyword -->
<g id="edge24" class="edge"><title>Idea&#45;&gt;IdeaKeyword</title>
<path fill="none" stroke="#b30f2b" d="M309.029,-183.615C289.172,-169.342 262.065,-149.859 240.928,-134.667"/>
<ellipse fill="none" stroke="#b30f2b" cx="312.47" cy="-186.088" rx="4.00002" ry="4.00002"/>
<polygon fill="#b30f2b" stroke="#b30f2b" points="240.686,-134.493 235.192,-125.003 236.626,-131.575 232.566,-128.657 232.566,-128.657 232.566,-128.657 236.626,-131.575 229.94,-132.311 240.686,-134.493 240.686,-134.493"/>
</g>
<!-- Idea&#45;&gt;Comment -->
<g id="edge20" class="edge"><title>Idea&#45;&gt;Comment</title>
<path fill="none" stroke="#fb483f" d="M339.577,-176.324C342.014,-166.507 346.111,-155.875 353,-148 360.405,-139.534 370.153,-132.88 380.287,-127.695"/>
<ellipse fill="none" stroke="#fb483f" cx="338.72" cy="-180.386" rx="4.00001" ry="4.00001"/>
<polygon fill="#fb483f" stroke="#fb483f" points="380.582,-127.557 391.547,-127.415 385.114,-125.446 389.647,-123.336 389.647,-123.336 389.647,-123.336 385.114,-125.446 387.747,-119.256 380.582,-127.557 380.582,-127.557"/>
<text text-anchor="middle" x="415" y="-153.4" font-family="Times Roman,serif" font-size="14.00">comment_threads</text>
</g>
<!-- Idea&#45;&gt;ActsAsVotable::Vote -->
<g id="edge22" class="edge"><title>Idea&#45;&gt;ActsAsVotable::Vote</title>
<path fill="none" stroke="#1e13ad" d="M330.383,-176.275C326.511,-153.669 322.898,-120.5 328,-92 330.732,-76.7368 336.44,-60.4896 341.907,-47.2072"/>
<ellipse fill="none" stroke="#1e13ad" cx="331.145" cy="-180.455" rx="4.00001" ry="4.00001"/>
<polygon fill="#1e13ad" stroke="#1e13ad" points="342.045,-46.8839 350.123,-39.4671 344.016,-42.2886 345.987,-37.6934 345.987,-37.6934 345.987,-37.6934 344.016,-42.2886 341.851,-35.9197 342.045,-46.8839 342.045,-46.8839"/>
<text text-anchor="middle" x="347" y="-107.4" font-family="Times Roman,serif" font-size="14.00">votes</text>
</g>
<!-- ActiveRecord::Base -->
<g id="node9" class="node"><title>ActiveRecord::Base</title>
<ellipse fill="none" stroke="black" cx="372" cy="-383" rx="104.151" ry="18.3848"/>
<text text-anchor="middle" x="372" y="-379.4" font-family="Times Roman,serif" font-size="14.00">ActiveRecord::Base</text>
</g>
<!-- ActiveRecord::Base&#45;&gt;Keyword -->
<g id="edge6" class="edge"><title>ActiveRecord::Base&#45;&gt;Keyword</title>
<path fill="none" stroke="black" d="M353.049,-364.407C333.517,-345.243 303.285,-315.582 284.079,-296.738"/>
</g>
<!-- ActiveRecord::Base&#45;&gt;IdeaKeyword -->
<g id="edge8" class="edge"><title>ActiveRecord::Base&#45;&gt;IdeaKeyword</title>
<path fill="none" stroke="black" d="M332.575,-365.802C285.012,-344.659 210.453,-310.092 203,-298 170.025,-244.504 189.755,-165.041 201.355,-129.43"/>
</g>
<!-- ActiveRecord::Base&#45;&gt;User -->
<g id="edge12" class="edge"><title>ActiveRecord::Base&#45;&gt;User</title>
<path fill="none" stroke="black" d="M372,-364.407C372,-345.594 372,-316.664 372,-297.783"/>
</g>
<!-- ActiveRecord::Base&#45;&gt;Comment -->
<g id="edge18" class="edge"><title>ActiveRecord::Base&#45;&gt;Comment</title>
<path fill="none" stroke="black" d="M391.376,-364.642C403.345,-352.398 418.23,-335.405 428,-318 462.743,-256.106 465.977,-236.118 477,-166 478.242,-158.097 480.377,-155.252 477,-148 473.292,-140.038 466.934,-133.178 460.187,-127.603"/>
</g>
<!-- ActiveRecord::Base&#45;&gt;Idea -->
<g id="edge26" class="edge"><title>ActiveRecord::Base&#45;&gt;Idea</title>
<path fill="none" stroke="black" d="M387.606,-364.436C406.316,-339.78 433.03,-295.243 415,-260 403.985,-238.469 380.625,-223.207 362.15,-213.928"/>
</g>
</g>
</svg>
