<?xml version="1.0" encoding="UTF-8" standalone="no"?>
<!DOCTYPE svg PUBLIC "-//W3C//DTD SVG 1.1//EN"
 "http://www.w3.org/Graphics/SVG/1.1/DTD/svg11.dtd">
<!-- Generated by graphviz version 2.26.3 (20100126.1600)
 -->
<!-- Title: models_diagram Pages: 1 -->
<svg width="681pt" height="828pt"
 viewBox="0.00 0.00 681.00 828.00" xmlns="http://www.w3.org/2000/svg" xmlns:xlink="http://www.w3.org/1999/xlink">
<g id="graph1" class="graph" transform="scale(1 1) rotate(0) translate(4 824)">
<title>models_diagram</title>
<polygon fill="white" stroke="white" points="-4,5 -4,-824 678,-824 678,5 -4,5"/>
<!-- _diagram_info -->
<g id="node1" class="node"><title>_diagram_info</title>
<text text-anchor="start" x="8" y="-803.8" font-family="Times Roman,serif" font-size="13.00">Models diagram</text>
<text text-anchor="start" x="8" y="-786.8" font-family="Times Roman,serif" font-size="13.00">Date: Feb 25 2014 &#45; 10:49</text>
<text text-anchor="start" x="8" y="-769.8" font-family="Times Roman,serif" font-size="13.00">Migration version: 20140204113749</text>
<text text-anchor="start" x="8" y="-752.8" font-family="Times Roman,serif" font-size="13.00">Generated by RailRoady 1.1.1</text>
<text text-anchor="start" x="8" y="-735.8" font-family="Times Roman,serif" font-size="13.00">http://railroady.prestonlee.com</text>
</g>
<!-- Keyword -->
<g id="node2" class="node"><title>Keyword</title>
<polyline fill="none" stroke="black" points="119.5,-563 260.5,-563 "/>
<path fill="none" stroke="black" d="M260.5,-563C266.5,-563 272.5,-569 272.5,-575"/>
<polyline fill="none" stroke="black" points="272.5,-575 272.5,-675 "/>
<path fill="none" stroke="black" d="M272.5,-675C272.5,-681 266.5,-687 260.5,-687"/>
<polyline fill="none" stroke="black" points="260.5,-687 119.5,-687 "/>
<path fill="none" stroke="black" d="M119.5,-687C113.5,-687 107.5,-681 107.5,-675"/>
<polyline fill="none" stroke="black" points="107.5,-675 107.5,-575 "/>
<path fill="none" stroke="black" d="M107.5,-575C107.5,-569 113.5,-563 119.5,-563"/>
<text text-anchor="middle" x="190" y="-670.4" font-family="Times Roman,serif" font-size="14.00">Keyword</text>
<polyline fill="none" stroke="black" points="107.5,-661 272.5,-661 "/>
<text text-anchor="start" x="115.5" y="-644.4" font-family="Times Roman,serif" font-size="14.00">id :integer</text>
<text text-anchor="start" x="115.5" y="-626.4" font-family="Times Roman,serif" font-size="14.00">name :string</text>
<text text-anchor="start" x="115.5" y="-608.4" font-family="Times Roman,serif" font-size="14.00">concrete :boolean</text>
<text text-anchor="start" x="115.5" y="-590.4" font-family="Times Roman,serif" font-size="14.00">created_at :datetime</text>
<text text-anchor="start" x="115.5" y="-572.4" font-family="Times Roman,serif" font-size="14.00">updated_at :datetime</text>
</g>
<!-- IdeaKeyword -->
<g id="node3" class="node"><title>IdeaKeyword</title>
<polyline fill="none" stroke="black" points="119.5,-156 260.5,-156 "/>
<path fill="none" stroke="black" d="M260.5,-156C266.5,-156 272.5,-162 272.5,-168"/>
<polyline fill="none" stroke="black" points="272.5,-168 272.5,-268 "/>
<path fill="none" stroke="black" d="M272.5,-268C272.5,-274 266.5,-280 260.5,-280"/>
<polyline fill="none" stroke="black" points="260.5,-280 119.5,-280 "/>
<path fill="none" stroke="black" d="M119.5,-280C113.5,-280 107.5,-274 107.5,-268"/>
<polyline fill="none" stroke="black" points="107.5,-268 107.5,-168 "/>
<path fill="none" stroke="black" d="M107.5,-168C107.5,-162 113.5,-156 119.5,-156"/>
<text text-anchor="middle" x="190" y="-263.4" font-family="Times Roman,serif" font-size="14.00">IdeaKeyword</text>
<polyline fill="none" stroke="black" points="107.5,-254 272.5,-254 "/>
<text text-anchor="start" x="115.5" y="-237.4" font-family="Times Roman,serif" font-size="14.00">id :integer</text>
<text text-anchor="start" x="115.5" y="-219.4" font-family="Times Roman,serif" font-size="14.00">idea_id :integer</text>
<text text-anchor="start" x="115.5" y="-201.4" font-family="Times Roman,serif" font-size="14.00">keyword_id :integer</text>
<text text-anchor="start" x="115.5" y="-183.4" font-family="Times Roman,serif" font-size="14.00">created_at :datetime</text>
<text text-anchor="start" x="115.5" y="-165.4" font-family="Times Roman,serif" font-size="14.00">updated_at :datetime</text>
</g>
<!-- Keyword&#45;&gt;IdeaKeyword -->
<g id="edge2" class="edge"><title>Keyword&#45;&gt;IdeaKeyword</title>
<path fill="none" stroke="#bad0fa" d="M190,-554.472C190,-480.59 190,-365.112 190,-290.499"/>
<ellipse fill="none" stroke="#bad0fa" cx="190" cy="-558.742" rx="4" ry="4"/>
<polygon fill="#bad0fa" stroke="#bad0fa" points="190,-290.251 194.5,-280.251 190,-285.251 190,-280.251 190,-280.251 190,-280.251 190,-285.251 185.5,-280.251 190,-290.251 190,-290.251"/>
</g>
<!-- Idea -->
<g id="node6" class="node"><title>Idea</title>
<polyline fill="none" stroke="black" points="283.5,-399 424.5,-399 "/>
<path fill="none" stroke="black" d="M424.5,-399C430.5,-399 436.5,-405 436.5,-411"/>
<polyline fill="none" stroke="black" points="436.5,-411 436.5,-511 "/>
<path fill="none" stroke="black" d="M436.5,-511C436.5,-517 430.5,-523 424.5,-523"/>
<polyline fill="none" stroke="black" points="424.5,-523 283.5,-523 "/>
<path fill="none" stroke="black" d="M283.5,-523C277.5,-523 271.5,-517 271.5,-511"/>
<polyline fill="none" stroke="black" points="271.5,-511 271.5,-411 "/>
<path fill="none" stroke="black" d="M271.5,-411C271.5,-405 277.5,-399 283.5,-399"/>
<text text-anchor="middle" x="354" y="-506.4" font-family="Times Roman,serif" font-size="14.00">Idea</text>
<polyline fill="none" stroke="black" points="271.5,-497 436.5,-497 "/>
<text text-anchor="start" x="279.5" y="-480.4" font-family="Times Roman,serif" font-size="14.00">id :integer</text>
<text text-anchor="start" x="279.5" y="-462.4" font-family="Times Roman,serif" font-size="14.00">name :string</text>
<text text-anchor="start" x="279.5" y="-444.4" font-family="Times Roman,serif" font-size="14.00">desc :text</text>
<text text-anchor="start" x="279.5" y="-426.4" font-family="Times Roman,serif" font-size="14.00">created_at :datetime</text>
<text text-anchor="start" x="279.5" y="-408.4" font-family="Times Roman,serif" font-size="14.00">updated_at :datetime</text>
</g>
<!-- Keyword&#45;&gt;Idea -->
<g id="edge4" class="edge"><title>Keyword&#45;&gt;Idea</title>
<path fill="none" stroke="#1fbcc4" d="M259.104,-555.896C267.611,-547.389 276.308,-538.692 284.817,-530.183"/>
<polygon fill="#1fbcc4" stroke="#1fbcc4" points="259.072,-555.928 248.819,-559.817 255.537,-559.463 252.001,-562.999 252.001,-562.999 252.001,-562.999 255.537,-559.463 255.183,-566.181 259.072,-555.928 259.072,-555.928"/>
<polygon fill="#1fbcc4" stroke="#1fbcc4" points="284.84,-530.16 295.093,-526.271 288.375,-526.625 291.911,-523.089 291.911,-523.089 291.911,-523.089 288.375,-526.625 288.729,-519.907 284.84,-530.16 284.84,-530.16"/>
</g>
<!-- User -->
<g id="node4" class="node"><title>User</title>
<polyline fill="none" stroke="black" points="301.5,-563 442.5,-563 "/>
<path fill="none" stroke="black" d="M442.5,-563C448.5,-563 454.5,-569 454.5,-575"/>
<polyline fill="none" stroke="black" points="454.5,-575 454.5,-675 "/>
<path fill="none" stroke="black" d="M454.5,-675C454.5,-681 448.5,-687 442.5,-687"/>
<polyline fill="none" stroke="black" points="442.5,-687 301.5,-687 "/>
<path fill="none" stroke="black" d="M301.5,-687C295.5,-687 289.5,-681 289.5,-675"/>
<polyline fill="none" stroke="black" points="289.5,-675 289.5,-575 "/>
<path fill="none" stroke="black" d="M289.5,-575C289.5,-569 295.5,-563 301.5,-563"/>
<text text-anchor="middle" x="372" y="-670.4" font-family="Times Roman,serif" font-size="14.00">User</text>
<polyline fill="none" stroke="black" points="289.5,-661 454.5,-661 "/>
<text text-anchor="start" x="297.5" y="-644.4" font-family="Times Roman,serif" font-size="14.00">id :integer</text>
<text text-anchor="start" x="297.5" y="-626.4" font-family="Times Roman,serif" font-size="14.00">username :string</text>
<text text-anchor="start" x="297.5" y="-608.4" font-family="Times Roman,serif" font-size="14.00">password :string</text>
<text text-anchor="start" x="297.5" y="-590.4" font-family="Times Roman,serif" font-size="14.00">created_at :datetime</text>
<text text-anchor="start" x="297.5" y="-572.4" font-family="Times Roman,serif" font-size="14.00">updated_at :datetime</text>
</g>
<!-- User&#45;&gt;Idea -->
<g id="edge10" class="edge"><title>User&#45;&gt;Idea</title>
<path fill="none" stroke="#b4c408" d="M364.313,-554.962C363.532,-547.844 362.737,-540.602 361.953,-533.459"/>
<ellipse fill="none" stroke="#b4c408" cx="364.759" cy="-559.023" rx="4.00001" ry="4.00001"/>
<polygon fill="#b4c408" stroke="#b4c408" points="361.906,-533.029 365.288,-522.598 361.36,-528.059 360.815,-523.089 360.815,-523.089 360.815,-523.089 361.36,-528.059 356.342,-523.58 361.906,-533.029 361.906,-533.029"/>
</g>
<!-- Comment -->
<g id="node5" class="node"><title>Comment</title>
<polyline fill="none" stroke="black" points="416,-93 588,-93 "/>
<path fill="none" stroke="black" d="M588,-93C594,-93 600,-99 600,-105"/>
<polyline fill="none" stroke="black" points="600,-105 600,-331 "/>
<path fill="none" stroke="black" d="M600,-331C600,-337 594,-343 588,-343"/>
<polyline fill="none" stroke="black" points="588,-343 416,-343 "/>
<path fill="none" stroke="black" d="M416,-343C410,-343 404,-337 404,-331"/>
<polyline fill="none" stroke="black" points="404,-331 404,-105 "/>
<path fill="none" stroke="black" d="M404,-105C404,-99 410,-93 416,-93"/>
<text text-anchor="middle" x="502" y="-326.4" font-family="Times Roman,serif" font-size="14.00">Comment</text>
<polyline fill="none" stroke="black" points="404,-317 600,-317 "/>
<text text-anchor="start" x="412" y="-300.4" font-family="Times Roman,serif" font-size="14.00">id :integer</text>
<text text-anchor="start" x="412" y="-282.4" font-family="Times Roman,serif" font-size="14.00">commentable_id :integer</text>
<text text-anchor="start" x="412" y="-264.4" font-family="Times Roman,serif" font-size="14.00">commentable_type :string</text>
<text text-anchor="start" x="412" y="-246.4" font-family="Times Roman,serif" font-size="14.00">title :string</text>
<text text-anchor="start" x="412" y="-228.4" font-family="Times Roman,serif" font-size="14.00">body :text</text>
<text text-anchor="start" x="412" y="-210.4" font-family="Times Roman,serif" font-size="14.00">subject :string</text>
<text text-anchor="start" x="412" y="-192.4" font-family="Times Roman,serif" font-size="14.00">user_id :integer</text>
<text text-anchor="start" x="412" y="-174.4" font-family="Times Roman,serif" font-size="14.00">parent_id :integer</text>
<text text-anchor="start" x="412" y="-156.4" font-family="Times Roman,serif" font-size="14.00">lft :integer</text>
<text text-anchor="start" x="412" y="-138.4" font-family="Times Roman,serif" font-size="14.00">rgt :integer</text>
<text text-anchor="start" x="412" y="-120.4" font-family="Times Roman,serif" font-size="14.00">created_at :datetime</text>
<text text-anchor="start" x="412" y="-102.4" font-family="Times Roman,serif" font-size="14.00">updated_at :datetime</text>
</g>
<!-- Comment&#45;&gt;Comment -->
<g id="edge14" class="edge"><title>Comment&#45;&gt;Comment</title>
<path fill="none" stroke="#8c76a8" d="M607.525,-237.915C614.065,-233.211 618,-226.572 618,-218 618,-210.142 614.693,-203.909 609.105,-199.301"/>
<ellipse fill="none" stroke="#8c76a8" cx="603.67" cy="-240.043" rx="4.00002" ry="4.00002"/>
<polygon fill="#8c76a8" stroke="#8c76a8" points="608.779,-199.108 602.455,-190.149 604.473,-196.566 600.168,-194.024 600.168,-194.024 600.168,-194.024 604.473,-196.566 597.88,-197.9 608.779,-199.108 608.779,-199.108"/>
<text text-anchor="middle" x="645.5" y="-214.4" font-family="Times Roman,serif" font-size="14.00">children</text>
</g>
<!-- ActsAsVotable::Vote -->
<g id="node16" class="node"><title>ActsAsVotable::Vote</title>
<ellipse fill="none" stroke="black" cx="394" cy="-19" rx="109.101" ry="18.3848"/>
<text text-anchor="middle" x="394" y="-15.4" font-family="Times Roman,serif" font-size="14.00">ActsAsVotable::Vote</text>
</g>
<!-- Comment&#45;&gt;ActsAsVotable::Vote -->
<g id="edge16" class="edge"><title>Comment&#45;&gt;ActsAsVotable::Vote</title>
<path fill="none" stroke="#f153da" d="M430.245,-85.7843C422.316,-71.175 414.962,-57.6246 408.979,-46.6008"/>
<ellipse fill="none" stroke="#f153da" cx="432.154" cy="-89.3018" rx="4.00002" ry="4.00002"/>
<polygon fill="#f153da" stroke="#f153da" points="408.865,-46.3897 408.05,-35.4541 406.48,-41.9951 404.095,-37.6006 404.095,-37.6006 404.095,-37.6006 406.48,-41.9951 400.14,-39.7471 408.865,-46.3897 408.865,-46.3897"/>
<text text-anchor="middle" x="441" y="-61.4" font-family="Times Roman,serif" font-size="14.00">votes</text>
</g>
<!-- Idea&#45;&gt;IdeaKeyword -->
<g id="edge24" class="edge"><title>Idea&#45;&gt;IdeaKeyword</title>
<path fill="none" stroke="#dac110" d="M307.299,-391.803C285.505,-359.511 259.601,-321.128 237.686,-288.656"/>
<ellipse fill="none" stroke="#dac110" cx="309.741" cy="-395.421" rx="4.00002" ry="4.00002"/>
<polygon fill="#dac110" stroke="#dac110" points="237.506,-288.39 235.642,-277.584 234.709,-284.246 231.912,-280.101 231.912,-280.101 231.912,-280.101 234.709,-284.246 228.182,-282.618 237.506,-288.39 237.506,-288.39"/>
</g>
<!-- Idea&#45;&gt;Comment -->
<g id="edge20" class="edge"><title>Idea&#45;&gt;Comment</title>
<path fill="none" stroke="#e72490" d="M369.709,-391.27C373.121,-381.179 377.187,-371.128 382,-362 386.831,-352.838 392.315,-343.728 398.216,-334.799"/>
<ellipse fill="none" stroke="#e72490" cx="368.452" cy="-395.173" rx="4.00001" ry="4.00001"/>
<polygon fill="#e72490" stroke="#e72490" points="398.372,-334.568 407.715,-328.827 401.183,-330.433 403.993,-326.298 403.993,-326.298 403.993,-326.298 401.183,-330.433 400.271,-323.768 398.372,-334.568 398.372,-334.568"/>
<text text-anchor="middle" x="444" y="-367.4" font-family="Times Roman,serif" font-size="14.00">comment_threads</text>
</g>
<!-- Idea&#45;&gt;ActsAsVotable::Vote -->
<g id="edge22" class="edge"><title>Idea&#45;&gt;ActsAsVotable::Vote</title>
<path fill="none" stroke="#a7dab6" d="M345.168,-390.875C337.871,-315.767 332.272,-193.653 357,-92 360.902,-75.9592 368.884,-59.4419 376.438,-46.1847"/>
<ellipse fill="none" stroke="#a7dab6" cx="345.573" cy="-394.914" rx="4" ry="4"/>
<polygon fill="#a7dab6" stroke="#a7dab6" points="376.444,-46.175 385.415,-39.8687 378.994,-41.8742 381.544,-37.5735 381.544,-37.5735 381.544,-37.5735 378.994,-41.8742 377.674,-35.2783 376.444,-46.175 376.444,-46.175"/>
<text text-anchor="middle" x="376" y="-214.4" font-family="Times Roman,serif" font-size="14.00">votes</text>
</g>
<!-- ActiveRecord::Base -->
<g id="node9" class="node"><title>ActiveRecord::Base</title>
<ellipse fill="none" stroke="black" cx="372" cy="-773" rx="104.151" ry="18.3848"/>
<text text-anchor="middle" x="372" y="-769.4" font-family="Times Roman,serif" font-size="14.00">ActiveRecord::Base</text>
</g>
<!-- ActiveRecord::Base&#45;&gt;Keyword -->
<g id="edge6" class="edge"><title>ActiveRecord::Base&#45;&gt;Keyword</title>
<path fill="none" stroke="black" d="M349.683,-754.852C328.896,-737.948 296.676,-711.748 266.607,-687.296"/>
</g>
<!-- ActiveRecord::Base&#45;&gt;IdeaKeyword -->
<g id="edge8" class="edge"><title>ActiveRecord::Base&#45;&gt;IdeaKeyword</title>
<path fill="none" stroke="black" d="M334.647,-755.68C312.899,-746.05 284.769,-734.359 259,-726 189.477,-703.448 144.319,-745.343 99,-688 4.17729,-568.019 92.673,-377.708 149.952,-280.149"/>
</g>
<!-- ActiveRecord::Base&#45;&gt;User -->
<g id="edge12" class="edge"><title>ActiveRecord::Base&#45;&gt;User</title>
<path fill="none" stroke="black" d="M372,-754.256C372,-737.299 372,-711.349 372,-687.139"/>
</g>
<!-- ActiveRecord::Base&#45;&gt;Comment -->
<g id="edge18" class="edge"><title>ActiveRecord::Base&#45;&gt;Comment</title>
<path fill="none" stroke="black" d="M411.532,-755.879C438.081,-741.935 470.724,-719.398 485,-688 534.426,-579.295 532.927,-441.399 522.558,-343.144"/>
</g>
<!-- ActiveRecord::Base&#45;&gt;Idea -->
<g id="edge26" class="edge"><title>ActiveRecord::Base&#45;&gt;Idea</title>
<path fill="none" stroke="black" d="M401.446,-755.134C422.977,-740.203 450.512,-716.752 463,-688 485.309,-636.635 485.411,-613.32 463,-562 456.754,-547.696 447.372,-534.512 436.685,-522.718"/>
</g>
</g>
</svg>
